<svg width="56" height="48" viewBox="0 0 56 48" fill="none" xmlns="http://www.w3.org/2000/svg">
<g clip-path="url(#clip0_63_1260)">
<path d="M0 2.25C0 1.00312 1.04028 0 2.33333 0H6.75694C8.89583 0 10.7917 1.2 11.6764 3H51.6347C54.1917 3 56.0583 5.34375 55.3875 7.725L51.4014 22.0031C50.575 24.9469 47.8042 27 44.6444 27H16.5958L17.1208 29.6719C17.3347 30.7313 18.2972 31.5 19.4153 31.5H47.4444C48.7375 31.5 49.7778 32.5031 49.7778 33.75C49.7778 34.9969 48.7375 36 47.4444 36H19.4153C16.0514 36 13.1639 33.6937 12.5417 30.5156L7.525 5.10938C7.45694 4.75313 7.13611 4.5 6.75694 4.5H2.33333C1.04028 4.5 0 3.49688 0 2.25ZM12.4444 43.5C12.4444 42.909 12.5652 42.3239 12.7997 41.7779C13.0342 41.232 13.3779 40.7359 13.8113 40.318C14.2446 39.9002 14.7591 39.5687 15.3253 39.3425C15.8914 39.1164 16.4983 39 17.1111 39C17.7239 39 18.3308 39.1164 18.897 39.3425C19.4632 39.5687 19.9776 39.9002 20.4109 40.318C20.8443 40.7359 21.188 41.232 21.4226 41.7779C21.6571 42.3239 21.7778 42.909 21.7778 43.5C21.7778 44.091 21.6571 44.6761 21.4226 45.2221C21.188 45.768 20.8443 46.2641 20.4109 46.682C19.9776 47.0998 19.4632 47.4313 18.897 47.6575C18.3308 47.8836 17.7239 48 17.1111 48C16.4983 48 15.8914 47.8836 15.3253 47.6575C14.7591 47.4313 14.2446 47.0998 13.8113 46.682C13.3779 46.2641 13.0342 45.768 12.7997 45.2221C12.5652 44.6761 12.4444 44.091 12.4444 43.5ZM45.1111 39C46.3488 39 47.5358 39.4741 48.4109 40.318C49.2861 41.1619 49.7778 42.3065 49.7778 43.5C49.7778 44.6935 49.2861 45.8381 48.4109 46.682C47.5358 47.5259 46.3488 48 45.1111 48C43.8734 48 42.6865 47.5259 41.8113 46.682C40.9361 45.8381 40.4444 44.6935 40.4444 43.5C40.4444 42.3065 40.9361 41.1619 41.8113 40.318C42.6865 39.4741 43.8734 39 45.1111 39ZM24.5 15C24.5 16.0312 25.375 16.875 26.4444 16.875H30.7222V21C30.7222 22.0312 31.5972 22.875 32.6667 22.875C33.7361 22.875 34.6111 22.0312 34.6111 21V16.875H38.8889C39.9583 16.875 40.8333 16.0312 40.8333 15C40.8333 13.9688 39.9583 13.125 38.8889 13.125H34.6111V9C34.6111 7.96875 33.7361 7.125 32.6667 7.125C31.5972 7.125 30.7222 7.96875 30.7222 9V13.125H26.4444C25.375 13.125 24.5 13.9688 24.5 15Z" fill="#141311"/>
</g>
<defs>
<clipPath id="clip0_63_1260">
<rect width="56" height="48" fill="white"/>
</clipPath>
</defs>
</svg>
