<svg width="28" height="28" viewBox="0 0 28 28" fill="none" xmlns="http://www.w3.org/2000/svg">
<path d="M25.375 8.75H2.625C2.39294 8.75 2.17038 8.84219 2.00628 9.00628C1.84219 9.17038 1.75 9.39294 1.75 9.625V18.375C1.75 18.6071 1.84219 18.8296 2.00628 18.9937C2.17038 19.1578 2.39294 19.25 2.625 19.25H25.375C25.6071 19.25 25.8296 19.1578 25.9937 18.9937C26.1578 18.8296 26.25 18.6071 26.25 18.375V9.625C26.25 9.39294 26.1578 9.17038 25.9937 9.00628C25.8296 8.84219 25.6071 8.75 25.375 8.75ZM24.5 17.5H3.5V10.5H7V14H8.75V10.5H13.125V14H14.875V10.5H19.25V14H21V10.5H24.5V17.5Z" fill="#BA9B88"/>
</svg>
