<svg width="20" height="20" viewBox="0 0 20 20" fill="none" xmlns="http://www.w3.org/2000/svg">
<mask id="mask0_55_32" style="mask-type:alpha" maskUnits="userSpaceOnUse" x="0" y="0" width="20" height="20">
<rect width="20" height="20" fill="#D9D9D9"/>
</mask>
<g mask="url(#mask0_55_32)">
<path d="M5.96146 17.9648C5.5566 17.9648 5.21236 17.8229 4.92875 17.5392C4.64514 17.2556 4.50333 16.9113 4.50333 16.5065C4.50333 16.1015 4.64514 15.7572 4.92875 15.4735C5.21236 15.1899 5.5566 15.0481 5.96146 15.0481C6.36646 15.0481 6.71076 15.1899 6.99438 15.4735C7.27799 15.7572 7.41979 16.1015 7.41979 16.5065C7.41979 16.9113 7.27799 17.2556 6.99438 17.5392C6.71076 17.8229 6.36646 17.9648 5.96146 17.9648ZM14.0385 17.9648C13.6335 17.9648 13.2892 17.8229 13.0056 17.5392C12.722 17.2556 12.5802 16.9113 12.5802 16.5065C12.5802 16.1015 12.722 15.7572 13.0056 15.4735C13.2892 15.1899 13.6335 15.0481 14.0385 15.0481C14.4434 15.0481 14.7876 15.1899 15.0712 15.4735C15.3549 15.7572 15.4967 16.1015 15.4967 16.5065C15.4967 16.9113 15.3549 17.2556 15.0712 17.5392C14.7876 17.8229 14.4434 17.9648 14.0385 17.9648ZM5.01271 4.79167L7.125 9.21479H12.806C12.8541 9.21479 12.8969 9.20278 12.9344 9.17875C12.9717 9.15472 13.0038 9.12132 13.0304 9.07854L15.266 5.01604C15.2981 4.95729 15.3008 4.90521 15.274 4.85979C15.2473 4.81438 15.2019 4.79167 15.1377 4.79167H5.01271ZM4.41354 3.54167H15.984C16.3248 3.54167 16.5825 3.68674 16.7571 3.97688C16.9318 4.26688 16.9401 4.56306 16.7821 4.86542L14.1121 9.70187C13.9754 9.94229 13.7947 10.1295 13.5698 10.2635C13.3448 10.3977 13.0983 10.4648 12.8302 10.4648H6.75L5.78521 12.2275C5.74243 12.2917 5.74111 12.3611 5.78125 12.4358C5.82125 12.5107 5.88132 12.5481 5.96146 12.5481H15.4967V13.7981H5.96146C5.4059 13.7981 4.98847 13.5585 4.70917 13.0794C4.42972 12.6002 4.41986 12.1218 4.67958 11.6442L5.86854 9.50646L2.83667 3.125H1.25V1.875H3.62188L4.41354 3.54167Z" fill="#141311"/>
</g>
</svg>
