<svg width="20" height="20" viewBox="0 0 20 20" fill="none" xmlns="http://www.w3.org/2000/svg">
<mask id="mask0_55_27" style="mask-type:alpha" maskUnits="userSpaceOnUse" x="0" y="0" width="20" height="20">
<rect width="20" height="20" fill="#D9D9D9"/>
</mask>
<g mask="url(#mask0_55_27)">
<path d="M10.0002 16.939L9.08037 16.1121C7.69898 14.8589 6.55662 13.782 5.65329 12.8815C4.74995 11.9808 4.03412 11.1792 3.50579 10.4767C2.97745 9.77431 2.60836 9.13354 2.3985 8.55438C2.1885 7.97535 2.0835 7.38778 2.0835 6.79167C2.0835 5.60903 2.48225 4.61889 3.27975 3.82125C4.07739 3.02375 5.06752 2.625 6.25016 2.625C6.97766 2.625 7.66516 2.79514 8.31266 3.13542C8.96016 3.47569 9.52266 3.96368 10.0002 4.59938C10.4777 3.96368 11.0402 3.47569 11.6877 3.13542C12.3352 2.79514 13.0227 2.625 13.7502 2.625C14.9328 2.625 15.9229 3.02375 16.7206 3.82125C17.5181 4.61889 17.9168 5.60903 17.9168 6.79167C17.9168 7.38778 17.8118 7.97535 17.6018 8.55438C17.392 9.13354 17.0229 9.77431 16.4945 10.4767C15.9662 11.1792 15.2517 11.9808 14.351 12.8815C13.4504 13.782 12.3068 14.8589 10.92 16.1121L10.0002 16.939ZM10.0002 15.25C11.3335 14.0503 12.4307 13.0219 13.2918 12.165C14.1529 11.3082 14.8335 10.5638 15.3335 9.93188C15.8335 9.29993 16.1807 8.73875 16.3752 8.24833C16.5696 7.75806 16.6668 7.2725 16.6668 6.79167C16.6668 5.95833 16.3891 5.26389 15.8335 4.70833C15.2779 4.15278 14.5835 3.875 13.7502 3.875C13.0921 3.875 12.4839 4.06167 11.9256 4.435C11.3674 4.80847 10.9254 5.32799 10.5995 5.99354H9.40079C9.06954 5.32257 8.62614 4.80174 8.07058 4.43104C7.51502 4.06035 6.90822 3.875 6.25016 3.875C5.42211 3.875 4.72898 4.15278 4.17079 4.70833C3.61259 5.26389 3.3335 5.95833 3.3335 6.79167C3.3335 7.2725 3.43072 7.75806 3.62516 8.24833C3.81961 8.73875 4.16683 9.29993 4.66683 9.93188C5.16683 10.5638 5.84739 11.3069 6.7085 12.161C7.56961 13.0152 8.66683 14.0449 10.0002 15.25Z" fill="#141311"/>
</g>
</svg>
