<svg width="64" height="64" viewBox="0 0 64 64" fill="none" xmlns="http://www.w3.org/2000/svg">
<path d="M14 44H50V19.896L34.532 7.24C33.8175 6.65577 32.9229 6.33661 32 6.33661C31.0771 6.33661 30.1825 6.65577 29.468 7.24L14 19.896V44ZM14 48V56H50V48H14ZM37.064 4.144L53.264 17.4C53.4937 17.5874 53.679 17.8234 53.8062 18.0912C53.9335 18.3589 53.9997 18.6516 54 18.948V58C54 58.5304 53.7893 59.0391 53.4142 59.4142C53.0391 59.7893 52.5304 60 52 60H12C11.4696 60 10.9609 59.7893 10.5858 59.4142C10.2107 59.0391 10 58.5304 10 58V18.948C9.9998 18.6519 10.0654 18.3594 10.192 18.0917C10.3185 17.824 10.503 17.5877 10.732 17.4L26.932 4.144C28.3613 2.97453 30.1512 2.33558 31.998 2.33558C33.8448 2.33558 35.6347 2.97453 37.064 4.144Z" fill="#141311"/>
<path d="M32 28C33.0609 28 34.0783 27.5786 34.8284 26.8284C35.5786 26.0783 36 25.0609 36 24C36 22.9391 35.5786 21.9217 34.8284 21.1716C34.0783 20.4214 33.0609 20 32 20C30.9391 20 29.9217 20.4214 29.1716 21.1716C28.4214 21.9217 28 22.9391 28 24C28 25.0609 28.4214 26.0783 29.1716 26.8284C29.9217 27.5786 30.9391 28 32 28ZM32 32C29.8783 32 27.8434 31.1571 26.3431 29.6569C24.8429 28.1566 24 26.1217 24 24C24 21.8783 24.8429 19.8434 26.3431 18.3431C27.8434 16.8429 29.8783 16 32 16C34.1217 16 36.1566 16.8429 37.6569 18.3431C39.1571 19.8434 40 21.8783 40 24C40 26.1217 39.1571 28.1566 37.6569 29.6569C36.1566 31.1571 34.1217 32 32 32Z" fill="#141311"/>
</svg>
