<svg width="89" height="75" viewBox="0 0 89 75" fill="none" xmlns="http://www.w3.org/2000/svg">
<path d="M7.38281 54H2.33789V28.793H7.38281V41.3965L16.7695 28.793H22.5L14.5371 39.4277L22.5 54H16.7695L11.2324 43.8047L7.38281 48.9551V54ZM30.1641 30.0586C30.1641 30.5039 30.0762 30.9199 29.9004 31.3066C29.7363 31.6934 29.5078 32.0332 29.2148 32.3262C28.9219 32.6074 28.5762 32.8359 28.1777 33.0117C27.791 33.1758 27.375 33.2578 26.9297 33.2578C26.4844 33.2578 26.0625 33.1758 25.6641 33.0117C25.2773 32.8359 24.9375 32.6074 24.6445 32.3262C24.3633 32.0332 24.1348 31.6934 23.959 31.3066C23.7949 30.9199 23.7129 30.5039 23.7129 30.0586C23.7129 29.625 23.7949 29.2148 23.959 28.8281C24.1348 28.4297 24.3633 28.0898 24.6445 27.8086C24.9375 27.5156 25.2773 27.2871 25.6641 27.123C26.0625 26.9473 26.4844 26.8594 26.9297 26.8594C27.375 26.8594 27.791 26.9473 28.1777 27.123C28.5762 27.2871 28.9219 27.5156 29.2148 27.8086C29.5078 28.0898 29.7363 28.4297 29.9004 28.8281C30.0762 29.2148 30.1641 29.625 30.1641 30.0586ZM29.3379 54H24.5039V35.1738H29.3379V54ZM49.4648 38.918L45.9492 42.4512C45.7734 41.959 45.5332 41.5195 45.2285 41.1328C44.9238 40.7344 44.5781 40.4004 44.1914 40.1309C43.8164 39.8613 43.4062 39.6562 42.9609 39.5156C42.5156 39.375 42.0586 39.3047 41.5898 39.3047C40.9336 39.3047 40.3125 39.4395 39.7266 39.709C39.1523 39.9785 38.6484 40.3594 38.2148 40.8516C37.793 41.332 37.459 41.9062 37.2129 42.5742C36.9668 43.2422 36.8438 43.9805 36.8438 44.7891C36.8438 45.4453 36.9668 46.0605 37.2129 46.6348C37.459 47.209 37.793 47.7129 38.2148 48.1465C38.6484 48.5801 39.1523 48.9199 39.7266 49.166C40.3125 49.4121 40.9336 49.5352 41.5898 49.5352C42.0586 49.5352 42.5098 49.4707 42.9434 49.3418C43.377 49.2129 43.7812 49.0312 44.1562 48.7969C44.543 48.5508 44.8828 48.2578 45.1758 47.918C45.4805 47.5664 45.7266 47.1797 45.9141 46.7578L49.4297 50.291C48.9844 50.9238 48.4688 51.4922 47.8828 51.9961C47.3086 52.5 46.6816 52.9277 46.002 53.2793C45.334 53.6309 44.625 53.8945 43.875 54.0703C43.1367 54.2578 42.375 54.3516 41.5898 54.3516C40.2656 54.3516 39.0176 54.1055 37.8457 53.6133C36.6855 53.1094 35.666 52.4238 34.7871 51.5566C33.9199 50.6895 33.2344 49.6758 32.7305 48.5156C32.2266 47.3555 31.9746 46.1133 31.9746 44.7891C31.9746 43.3477 32.2266 42 32.7305 40.7461C33.2344 39.4922 33.9199 38.4023 34.7871 37.4766C35.666 36.5391 36.6855 35.8008 37.8457 35.2617C39.0176 34.7227 40.2656 34.4531 41.5898 34.4531C42.375 34.4531 43.1426 34.5527 43.8926 34.752C44.6543 34.9512 45.375 35.2441 46.0547 35.6309C46.7461 36.0059 47.3789 36.4688 47.9531 37.0195C48.5391 37.5703 49.043 38.2031 49.4648 38.918ZM56.6543 54H51.8203V27.6855H56.6543V44.2793L63.8086 35.209H69.3281L63.0879 43.0488L69.3281 54H63.8086L59.9941 47.1621L56.6543 51.5918V54Z" fill="#141311"/>
<path d="M78.2976 26.6592H78.4C78.7072 26.6933 78.9461 26.8299 79.1168 27.0688C79.2875 27.3077 79.3728 27.5637 79.3728 27.8368C79.3728 28.0757 79.1339 28.6048 78.656 29.424C78.2123 30.2432 77.9904 30.9088 77.9904 31.4208C77.9904 31.8987 78.0587 32.3595 78.1952 32.8032C78.3317 33.2128 78.7584 34.2368 79.4752 35.8752C81.0453 39.4592 81.8304 42.6677 81.8304 45.5008C81.8304 48.2997 81.0624 50.6208 79.5264 52.464C78.0245 54.3072 76.2155 55.2288 74.0992 55.2288C72.0171 55.2288 70.976 53.9659 70.976 51.44C70.976 48.88 71.8805 46.1493 73.6896 43.248C74.7477 41.5755 75.8912 40.3125 77.12 39.4592C77.4613 39.2203 77.6832 39.2715 77.7856 39.6128C77.9221 39.9541 77.8539 40.2272 77.5808 40.432C75.6011 41.8656 74.0651 44.1355 72.9728 47.2416C71.9829 50.0405 71.8805 51.9861 72.6656 53.0784C72.9387 53.488 73.3312 53.6928 73.8432 53.6928C75.3451 53.6928 76.5227 52.6859 77.376 50.672C78.2293 48.6581 78.656 46.1493 78.656 43.1456C78.656 40.5515 78.3488 38.1451 77.7344 35.9264C77.12 33.7077 76.7787 32.4277 76.7104 32.0864C75.6864 34.032 74.5771 36.2165 73.3824 38.64H72C73.9456 34.7829 75.4475 31.8816 76.5056 29.936C76.6421 27.7515 77.2395 26.6592 78.2976 26.6592Z" fill="#141311"/>
</svg>
