<svg width="155" height="122" viewBox="0 0 155 122" fill="none" xmlns="http://www.w3.org/2000/svg">
<path d="M13.125 87H4.15625V42.1875H13.125V64.5938L29.8125 42.1875H40L25.8438 61.0938L40 87H29.8125L19.9688 68.875L13.125 78.0312V87ZM53.625 44.4375C53.625 45.2292 53.4688 45.9688 53.1562 46.6562C52.8646 47.3438 52.4583 47.9479 51.9375 48.4688C51.4167 48.9688 50.8021 49.375 50.0938 49.6875C49.4062 49.9792 48.6667 50.125 47.875 50.125C47.0833 50.125 46.3333 49.9792 45.625 49.6875C44.9375 49.375 44.3333 48.9688 43.8125 48.4688C43.3125 47.9479 42.9062 47.3438 42.5938 46.6562C42.3021 45.9688 42.1562 45.2292 42.1562 44.4375C42.1562 43.6667 42.3021 42.9375 42.5938 42.25C42.9062 41.5417 43.3125 40.9375 43.8125 40.4375C44.3333 39.9167 44.9375 39.5104 45.625 39.2188C46.3333 38.9062 47.0833 38.75 47.875 38.75C48.6667 38.75 49.4062 38.9062 50.0938 39.2188C50.8021 39.5104 51.4167 39.9167 51.9375 40.4375C52.4583 40.9375 52.8646 41.5417 53.1562 42.25C53.4688 42.9375 53.625 43.6667 53.625 44.4375ZM52.1562 87H43.5625V53.5312H52.1562V87ZM87.9375 60.1875L81.6875 66.4688C81.375 65.5938 80.9479 64.8125 80.4062 64.125C79.8646 63.4167 79.25 62.8229 78.5625 62.3438C77.8958 61.8646 77.1667 61.5 76.375 61.25C75.5833 61 74.7708 60.875 73.9375 60.875C72.7708 60.875 71.6667 61.1146 70.625 61.5938C69.6042 62.0729 68.7083 62.75 67.9375 63.625C67.1875 64.4792 66.5938 65.5 66.1562 66.6875C65.7188 67.875 65.5 69.1875 65.5 70.625C65.5 71.7917 65.7188 72.8854 66.1562 73.9062C66.5938 74.9271 67.1875 75.8229 67.9375 76.5938C68.7083 77.3646 69.6042 77.9688 70.625 78.4062C71.6667 78.8438 72.7708 79.0625 73.9375 79.0625C74.7708 79.0625 75.5729 78.9479 76.3438 78.7188C77.1146 78.4896 77.8333 78.1667 78.5 77.75C79.1875 77.3125 79.7917 76.7917 80.3125 76.1875C80.8542 75.5625 81.2917 74.875 81.625 74.125L87.875 80.4062C87.0833 81.5312 86.1667 82.5417 85.125 83.4375C84.1042 84.3333 82.9896 85.0938 81.7812 85.7188C80.5938 86.3438 79.3333 86.8125 78 87.125C76.6875 87.4583 75.3333 87.625 73.9375 87.625C71.5833 87.625 69.3646 87.1875 67.2812 86.3125C65.2188 85.4167 63.4062 84.1979 61.8438 82.6562C60.3021 81.1146 59.0833 79.3125 58.1875 77.25C57.2917 75.1875 56.8438 72.9792 56.8438 70.625C56.8438 68.0625 57.2917 65.6667 58.1875 63.4375C59.0833 61.2083 60.3021 59.2708 61.8438 57.625C63.4062 55.9583 65.2188 54.6458 67.2812 53.6875C69.3646 52.7292 71.5833 52.25 73.9375 52.25C75.3333 52.25 76.6979 52.4271 78.0312 52.7812C79.3854 53.1354 80.6667 53.6562 81.875 54.3438C83.1042 55.0104 84.2292 55.8333 85.25 56.8125C86.2917 57.7917 87.1875 58.9167 87.9375 60.1875ZM100.719 87H92.125V40.2188H100.719V69.7188L113.438 53.5938H123.25L112.156 67.5312L123.25 87H113.438L106.656 74.8438L100.719 82.7188V87Z" fill="white"/>
<path d="M138.234 42.5712H138.4C138.899 42.6267 139.287 42.8485 139.565 43.2368C139.842 43.6251 139.981 44.0411 139.981 44.4848C139.981 44.8731 139.593 45.7328 138.816 47.064C138.095 48.3952 137.734 49.4768 137.734 50.3088C137.734 51.0853 137.845 51.8341 138.067 52.5552C138.289 53.2208 138.982 54.8848 140.147 57.5472C142.699 63.3712 143.974 68.5851 143.974 73.1888C143.974 77.7371 142.726 81.5088 140.23 84.504C137.79 87.4992 134.85 88.9968 131.411 88.9968C128.028 88.9968 126.336 86.9445 126.336 82.84C126.336 78.68 127.806 74.2427 130.746 69.528C132.465 66.8101 134.323 64.7579 136.32 63.3712C136.875 62.9829 137.235 63.0661 137.402 63.6208C137.623 64.1755 137.513 64.6192 137.069 64.952C133.852 67.2816 131.356 70.9701 129.581 76.0176C127.972 80.5659 127.806 83.7275 129.082 85.5024C129.525 86.168 130.163 86.5008 130.995 86.5008C133.436 86.5008 135.349 84.8645 136.736 81.592C138.123 78.3195 138.816 74.2427 138.816 69.3616C138.816 65.1461 138.317 61.2357 137.318 57.6304C136.32 54.0251 135.765 51.9451 135.654 51.3904C133.99 54.552 132.188 58.1019 130.246 62.04H128C131.162 55.7723 133.602 51.0576 135.322 47.896C135.543 44.3461 136.514 42.5712 138.234 42.5712Z" fill="white"/>
</svg>
