<svg width="59" height="56" viewBox="0 0 59 56" fill="none" xmlns="http://www.w3.org/2000/svg">
<rect x="1.1665" y="0.5" width="57.3333" height="55" rx="7.5" stroke="#141311"/>
<mask id="mask0_50_782" style="mask-type:alpha" maskUnits="userSpaceOnUse" x="14" y="12" width="32" height="32">
<rect x="14" y="12" width="32" height="32" fill="#D9D9D9"/>
</mask>
<g mask="url(#mask0_50_782)">
<path d="M29.8669 39.7023L28.3952 38.3793C26.185 36.3742 24.3572 34.6512 22.9119 33.2103C21.4665 31.7692 20.3212 30.4867 19.4759 29.3627C18.6305 28.2389 18.04 27.2137 17.7042 26.287C17.3682 25.3606 17.2002 24.4204 17.2002 23.4667C17.2002 21.5744 17.8382 19.9902 19.1142 18.714C20.3904 17.438 21.9746 16.8 23.8669 16.8C25.0309 16.8 26.1309 17.0722 27.1669 17.6167C28.2029 18.1611 29.1029 18.9419 29.8669 19.959C30.6309 18.9419 31.5309 18.1611 32.5669 17.6167C33.6029 17.0722 34.7029 16.8 35.8669 16.8C37.7591 16.8 39.3433 17.438 40.6195 18.714C41.8955 19.9902 42.5335 21.5744 42.5335 23.4667C42.5335 24.4204 42.3655 25.3606 42.0295 26.287C41.6938 27.2137 41.1032 28.2389 40.2579 29.3627C39.4125 30.4867 38.2693 31.7692 36.8282 33.2103C35.3873 34.6512 33.5574 36.3742 31.3385 38.3793L29.8669 39.7023ZM29.8669 37C32.0002 35.0804 33.7558 33.4351 35.1335 32.064C36.5113 30.6931 37.6002 29.5021 38.4002 28.491C39.2002 27.4799 39.7558 26.582 40.0669 25.7973C40.378 25.0129 40.5335 24.236 40.5335 23.4667C40.5335 22.1333 40.0891 21.0222 39.2002 20.1333C38.3113 19.2444 37.2002 18.8 35.8669 18.8C34.814 18.8 33.8409 19.0987 32.9475 19.696C32.0544 20.2936 31.3472 21.1248 30.8259 22.1897H28.9079C28.3779 21.1161 27.6684 20.2828 26.7795 19.6897C25.8906 19.0966 24.9198 18.8 23.8669 18.8C22.542 18.8 21.433 19.2444 20.5399 20.1333C19.6468 21.0222 19.2002 22.1333 19.2002 23.4667C19.2002 24.236 19.3558 25.0129 19.6669 25.7973C19.978 26.582 20.5335 27.4799 21.3335 28.491C22.1335 29.5021 23.2224 30.691 24.6002 32.0577C25.978 33.4243 27.7335 35.0718 29.8669 37Z" fill="#141311"/>
</g>
</svg>
