<svg width="60" height="60" viewBox="0 0 60 60" fill="none" xmlns="http://www.w3.org/2000/svg">
<rect width="60" height="60" rx="30" fill="white"/>
<mask id="mask0_63_1090" style="mask-type:alpha" maskUnits="userSpaceOnUse" x="10" y="10" width="40" height="40">
<rect x="10" y="10" width="40" height="40" fill="#D9D9D9"/>
</mask>
<g mask="url(#mask0_63_1090)">
<path d="M30.0003 43.8779L28.1607 42.2242C25.398 39.7178 23.1132 37.564 21.3066 35.7629C19.4999 33.9615 18.0682 32.3583 17.0116 30.9533C15.9549 29.5486 15.2167 28.2671 14.797 27.1088C14.377 25.9507 14.167 24.7756 14.167 23.5833C14.167 21.2181 14.9645 19.2378 16.5595 17.6425C18.1548 16.0475 20.135 15.25 22.5003 15.25C23.9553 15.25 25.3303 15.5903 26.6253 16.2708C27.9203 16.9514 29.0453 17.9274 30.0003 19.1988C30.9553 17.9274 32.0803 16.9514 33.3753 16.2708C34.6703 15.5903 36.0453 15.25 37.5003 15.25C39.8656 15.25 41.8459 16.0475 43.4412 17.6425C45.0362 19.2378 45.8337 21.2181 45.8337 23.5833C45.8337 24.7756 45.6237 25.9507 45.2037 27.1088C44.7839 28.2671 44.0457 29.5486 42.9891 30.9533C41.9324 32.3583 40.5034 33.9615 38.702 35.7629C36.9009 37.564 34.6135 39.7178 31.8399 42.2242L30.0003 43.8779ZM30.0003 40.5C32.667 38.1006 34.8614 36.0439 36.5837 34.33C38.3059 32.6164 39.667 31.1276 40.667 29.8638C41.667 28.5999 42.3614 27.4775 42.7503 26.4967C43.1392 25.5161 43.3337 24.545 43.3337 23.5833C43.3337 21.9167 42.7781 20.5278 41.667 19.4167C40.5559 18.3056 39.167 17.75 37.5003 17.75C36.1842 17.75 34.9678 18.1233 33.8512 18.87C32.7348 19.6169 31.8507 20.656 31.1991 21.9871H28.8016C28.1391 20.6451 27.2523 19.6035 26.1412 18.8621C25.03 18.1207 23.8164 17.75 22.5003 17.75C20.8442 17.75 19.458 18.3056 18.3416 19.4167C17.2252 20.5278 16.667 21.9167 16.667 23.5833C16.667 24.545 16.8614 25.5161 17.2503 26.4967C17.6392 27.4775 18.3337 28.5999 19.3337 29.8638C20.3337 31.1276 21.6948 32.6138 23.417 34.3221C25.1392 36.0304 27.3337 38.0897 30.0003 40.5Z" fill="#141311"/>
</g>
</svg>
