<svg width="20" height="20" viewBox="0 0 20 20" fill="none" xmlns="http://www.w3.org/2000/svg">
<mask id="mask0_55_27" style="mask-type:alpha" maskUnits="userSpaceOnUse" x="0" y="0" width="20" height="20">
<rect width="20" height="20" fill="#D9D9D9"/>
</mask>
<g mask="url(#mask0_55_27)">
<path d="M10.0002 16.939L9.08037 16.1121C7.69898 14.859 6.55662 13.7821 5.65329 12.8815C4.74995 11.9808 4.03412 11.1792 3.50579 10.4767C2.97745 9.77437 2.60836 9.1336 2.3985 8.55444C2.1885 7.97541 2.0835 7.38784 2.0835 6.79173C2.0835 5.60909 2.48225 4.61895 3.27975 3.82131C4.07739 3.02381 5.06752 2.62506 6.25016 2.62506C6.97766 2.62506 7.66516 2.7952 8.31266 3.13548C8.96016 3.47576 9.52266 3.96374 10.0002 4.59944C10.4777 3.96374 11.0402 3.47576 11.6877 3.13548C12.3352 2.7952 13.0227 2.62506 13.7502 2.62506C14.9328 2.62506 15.9229 3.02381 16.7206 3.82131C17.5181 4.61895 17.9168 5.60909 17.9168 6.79173C17.9168 7.38784 17.8118 7.97541 17.6018 8.55444C17.392 9.1336 17.0229 9.77437 16.4945 10.4767C15.9662 11.1792 15.2517 11.9808 14.351 12.8815C13.4504 13.7821 12.3068 14.859 10.92 16.1121L10.0002 16.939ZM10.0002 15.2501C11.3335 14.0503 12.4307 13.022 13.2918 12.1651C14.1529 11.3083 14.8335 10.5639 15.3335 9.93194C15.8335 9.29999 16.1807 8.73881 16.3752 8.24839C16.5696 7.75812 16.6668 7.27256 16.6668 6.79173C16.6668 5.95839 16.3891 5.26395 15.8335 4.70839C15.2779 4.15284 14.5835 3.87506 13.7502 3.87506C13.0921 3.87506 12.4839 4.06173 11.9256 4.43506C11.3674 4.80853 10.9254 5.32805 10.5995 5.9936H9.40079C9.06954 5.32263 8.62614 4.8018 8.07058 4.4311C7.51502 4.06041 6.90822 3.87506 6.25016 3.87506C5.42211 3.87506 4.72898 4.15284 4.17079 4.70839C3.61259 5.26395 3.3335 5.95839 3.3335 6.79173C3.3335 7.27256 3.43072 7.75812 3.62516 8.24839C3.81961 8.73881 4.16683 9.29999 4.66683 9.93194C5.16683 10.5639 5.84739 11.3069 6.7085 12.1611C7.56961 13.0153 8.66683 14.0449 10.0002 15.2501Z" fill="#141311"/>
</g>
</svg>
