<svg width="61" height="24" viewBox="0 0 61 24" fill="none" xmlns="http://www.w3.org/2000/svg">
<g clip-path="url(#clip0_50_728)">
<path d="M24.0002 7.79999L6.44224 15.276C4.98624 15.8927 3.76358 16.201 2.77424 16.201C1.65424 16.201 0.841909 15.8087 0.337242 15.024C0.0205753 14.52 -0.072758 13.8807 0.057242 13.106C0.187909 12.3313 0.533242 11.5053 1.09324 10.628C1.55991 9.91799 2.32558 8.98465 3.39024 7.82799C3.02865 8.39647 2.76373 9.02092 2.60624 9.67599C2.32624 10.8707 2.57824 11.748 3.36224 12.308C3.73558 12.5693 4.24891 12.7 4.90224 12.7C5.42424 12.7 6.01224 12.616 6.66624 12.448L24.0002 7.79999Z" fill="#141311"/>
</g>
<path d="M29.28 16V4.8H31.888L35.792 15.152H36V4.8H37.328V16H34.72L30.832 5.632H30.608V16H29.28ZM39.953 16V8.176H41.217V16H39.953ZM40.593 6.96C40.3157 6.96 40.081 6.86933 39.889 6.688C39.7077 6.50667 39.617 6.27733 39.617 6C39.617 5.712 39.7077 5.47733 39.889 5.296C40.081 5.11467 40.3157 5.024 40.593 5.024C40.8703 5.024 41.0997 5.11467 41.281 5.296C41.4623 5.47733 41.553 5.712 41.553 6C41.553 6.27733 41.4623 6.50667 41.281 6.688C41.0997 6.86933 40.8703 6.96 40.593 6.96ZM43.8749 16V4.8H45.1389V11.392H45.3629L48.9469 8.176H50.7069L46.3709 11.984L50.8349 16H49.0909L45.3629 12.592H45.1389V16H43.8749ZM55.6464 16.224C54.857 16.224 54.1637 16.0587 53.5664 15.728C52.969 15.3867 52.505 14.912 52.1744 14.304C51.8437 13.696 51.6784 12.992 51.6784 12.192V12C51.6784 11.1893 51.8437 10.48 52.1744 9.872C52.505 9.264 52.9637 8.79467 53.5504 8.464C54.137 8.12267 54.809 7.952 55.5664 7.952C56.3024 7.952 56.953 8.112 57.5184 8.432C58.0837 8.74133 58.5264 9.18933 58.8464 9.776C59.1664 10.3627 59.3264 11.0507 59.3264 11.84V12.416H52.9424C52.9744 13.2587 53.2464 13.92 53.7584 14.4C54.2704 14.8693 54.9104 15.104 55.6784 15.104C56.3504 15.104 56.8677 14.9493 57.2304 14.64C57.593 14.3307 57.8704 13.9627 58.0624 13.536L59.1504 14.064C58.9904 14.3947 58.7664 14.7253 58.4784 15.056C58.201 15.3867 57.833 15.664 57.3744 15.888C56.9264 16.112 56.3504 16.224 55.6464 16.224ZM52.9584 11.376H58.0464C58.0037 10.6507 57.753 10.0853 57.2944 9.68C56.8464 9.27467 56.2704 9.072 55.5664 9.072C54.8517 9.072 54.265 9.27467 53.8064 9.68C53.3477 10.0853 53.065 10.6507 52.9584 11.376Z" fill="#141311"/>
<defs>
<clipPath id="clip0_50_728">
<rect width="24" height="24" fill="white"/>
</clipPath>
</defs>
</svg>
