<svg width="312" height="60" viewBox="0 0 312 60" fill="none" xmlns="http://www.w3.org/2000/svg">
<rect width="60" height="60" rx="30" fill="#141311"/>
<path d="M31.196 40V22.472H30.748L27.528 29.08H24.42L28.76 20.4H34.136V40H31.196Z" fill="white"/>
<rect x="84" width="60" height="60" rx="30" fill="#EDEEF2"/>
<path d="M107.344 40V37.788C107.344 36.4253 107.577 35.3053 108.044 34.428C108.511 33.5507 109.173 32.8413 110.032 32.3C110.909 31.74 111.964 31.2733 113.196 30.9L114.904 30.368C115.669 30.1253 116.323 29.8267 116.864 29.472C117.424 29.1173 117.853 28.6787 118.152 28.156C118.451 27.6147 118.6 26.9893 118.6 26.28V26.168C118.6 25.0667 118.227 24.208 117.48 23.592C116.733 22.9573 115.753 22.64 114.54 22.64C113.289 22.64 112.272 22.976 111.488 23.648C110.723 24.32 110.34 25.3093 110.34 26.616V27.064H107.428V26.644C107.428 25.2253 107.736 24.0307 108.352 23.06C108.968 22.0707 109.817 21.3147 110.9 20.792C111.983 20.2693 113.196 20.008 114.54 20.008C115.884 20.008 117.079 20.26 118.124 20.764C119.188 21.268 120.019 21.9773 120.616 22.892C121.232 23.8067 121.54 24.88 121.54 26.112V26.364C121.54 27.6333 121.288 28.688 120.784 29.528C120.28 30.368 119.58 31.0587 118.684 31.6C117.807 32.1413 116.789 32.5987 115.632 32.972L113.98 33.476C113.103 33.7373 112.393 34.0267 111.852 34.344C111.329 34.6427 110.937 35.0067 110.676 35.436C110.433 35.8653 110.312 36.416 110.312 37.088V37.368H121.372V40H107.344Z" fill="#141311"/>
<rect x="168" width="60" height="60" rx="30" fill="#EDEEF2"/>
<path d="M198.512 40.392C197.075 40.392 195.796 40.1307 194.676 39.608C193.556 39.0853 192.679 38.3293 192.044 37.34C191.428 36.3507 191.12 35.1747 191.12 33.812V33.308H194.06V33.756C194.06 34.988 194.461 35.968 195.264 36.696C196.085 37.4053 197.168 37.76 198.512 37.76C199.856 37.76 200.901 37.424 201.648 36.752C202.395 36.08 202.768 35.2307 202.768 34.204V33.952C202.768 33.224 202.591 32.636 202.236 32.188C201.881 31.74 201.405 31.4133 200.808 31.208C200.211 30.984 199.539 30.872 198.792 30.872H195.236V27.484L202.124 23.424V23.032H191.596V20.4H205.316V24.376L198.736 28.296V28.688H199.94C200.929 28.688 201.863 28.8747 202.74 29.248C203.617 29.6213 204.327 30.1907 204.868 30.956C205.428 31.7213 205.708 32.692 205.708 33.868V34.204C205.708 35.4547 205.409 36.5467 204.812 37.48C204.215 38.3947 203.375 39.1133 202.292 39.636C201.209 40.14 199.949 40.392 198.512 40.392Z" fill="#141311"/>
<rect x="252.5" y="0.5" width="59" height="59" rx="29.5" stroke="#4F4F4F"/>
<path d="M277.517 21.1833C277.362 21.3375 277.24 21.5207 277.156 21.7223C277.072 21.9239 277.029 22.14 277.029 22.3583C277.029 22.5766 277.072 22.7927 277.156 22.9944C277.24 23.196 277.362 23.3791 277.517 23.5333L283.983 30L277.517 36.4667C277.205 36.7783 277.03 37.201 277.03 37.6417C277.03 38.0824 277.205 38.505 277.517 38.8167C277.828 39.1283 278.251 39.3034 278.692 39.3034C279.132 39.3034 279.555 39.1283 279.867 38.8167L287.517 31.1667C287.671 31.0125 287.794 30.8293 287.877 30.6277C287.961 30.4261 288.004 30.2099 288.004 29.9917C288.004 29.7734 287.961 29.5572 287.877 29.3556C287.794 29.154 287.671 28.9709 287.517 28.8167L279.867 21.1667C279.233 20.5333 278.167 20.5333 277.517 21.1833Z" fill="#141311"/>
</svg>
