<svg width="24" height="25" viewBox="0 0 24 25" fill="none" xmlns="http://www.w3.org/2000/svg">
<path fill-rule="evenodd" clip-rule="evenodd" d="M15.8257 14.8987L21.2057 20.2787C21.3948 20.468 21.501 20.7246 21.5009 20.9921C21.5008 21.2596 21.3945 21.5161 21.2052 21.7052C21.016 21.8943 20.7594 22.0005 20.4919 22.0004C20.2244 22.0003 19.9678 21.894 19.7787 21.7047L14.3987 16.3247C12.7905 17.5704 10.768 18.1566 8.74287 17.9641C6.71772 17.7716 4.84198 16.8148 3.49723 15.2884C2.15248 13.7619 1.43973 11.7806 1.504 9.74729C1.56826 7.71402 2.4047 5.7816 3.84315 4.34315C5.2816 2.9047 7.21402 2.06826 9.24729 2.004C11.2806 1.93973 13.2619 2.65248 14.7884 3.99723C16.3148 5.34198 17.2716 7.21772 17.4641 9.24287C17.6566 11.268 17.0704 13.2905 15.8247 14.8987H15.8257ZM9.50074 15.9997C11.092 15.9997 12.6182 15.3676 13.7434 14.2424C14.8686 13.1172 15.5007 11.591 15.5007 9.99974C15.5007 8.40845 14.8686 6.88232 13.7434 5.7571C12.6182 4.63189 11.092 3.99974 9.50074 3.99974C7.90944 3.99974 6.38332 4.63189 5.2581 5.7571C4.13289 6.88232 3.50074 8.40845 3.50074 9.99974C3.50074 11.591 4.13289 13.1172 5.2581 14.2424C6.38332 15.3676 7.90944 15.9997 9.50074 15.9997Z" fill="#141311"/>
</svg>
