<svg width="172" height="20" viewBox="0 0 172 20" fill="none" xmlns="http://www.w3.org/2000/svg">
<path d="M18.3332 10.0003C18.3332 5.40033 14.5998 1.66699 9.99984 1.66699C5.39984 1.66699 1.6665 5.40033 1.6665 10.0003C1.6665 14.0337 4.53317 17.392 8.33317 18.167V12.5003H6.6665V10.0003H8.33317V7.91699C8.33317 6.30866 9.6415 5.00033 11.2498 5.00033H13.3332V7.50033H11.6665C11.2082 7.50033 10.8332 7.87533 10.8332 8.33366V10.0003H13.3332V12.5003H10.8332V18.292C15.0415 17.8753 18.3332 14.3253 18.3332 10.0003Z" fill="white"/>
<path d="M62.5109 4.71376C61.8747 4.99498 61.2 5.17979 60.5093 5.26209C61.2366 4.82608 61.7808 4.14086 62.0409 3.33376C61.3576 3.74043 60.6084 4.02543 59.8284 4.17959C59.3039 3.61841 58.6087 3.24623 57.8509 3.12091C57.0931 2.9956 56.3151 3.12417 55.6378 3.48664C54.9606 3.84911 54.4221 4.42516 54.106 5.12525C53.79 5.82535 53.7141 6.61024 53.8901 7.35793C52.5042 7.28879 51.1483 6.92883 49.9106 6.30143C48.6729 5.67403 47.581 4.79323 46.7059 3.71626C46.3963 4.24833 46.2335 4.85313 46.2343 5.46876C46.2343 6.67709 46.8501 7.74459 47.7843 8.36959C47.2311 8.35116 46.6902 8.20179 46.2059 7.93376V7.97626C46.2059 8.78115 46.4843 9.56128 46.9939 10.1843C47.5035 10.8074 48.2129 11.235 49.0018 11.3946C48.4882 11.5341 47.9495 11.5546 47.4268 11.4546C47.6492 12.1474 48.0828 12.7533 48.6668 13.1874C49.2508 13.6215 49.9559 13.8621 50.6834 13.8754C49.9603 14.4431 49.1324 14.8627 48.247 15.1103C47.3616 15.358 46.4362 15.4288 45.5234 15.3188C47.1165 16.3433 48.971 16.8872 50.8651 16.8854C57.2768 16.8854 60.7818 11.5746 60.7818 6.96876C60.7818 6.81821 60.7784 6.66793 60.7718 6.51793C61.4537 6.02485 62.0424 5.4142 62.5101 4.71459" fill="white"/>
<path d="M107.167 8.0919C107.208 6.89911 106.947 5.71525 106.409 4.65023C106.043 4.21323 105.536 3.91832 104.975 3.8169C102.656 3.6065 100.328 3.52027 98.0002 3.55856C95.6807 3.51853 93.3608 3.60198 91.0502 3.80856C90.5934 3.89166 90.1706 4.10593 89.8335 4.42523C89.0835 5.1169 89.0002 6.30023 88.9169 7.30023C88.7959 9.0982 88.7959 10.9023 88.9169 12.7002C88.941 13.2631 89.0248 13.8218 89.1669 14.3669C89.2673 14.7878 89.4706 15.1772 89.7585 15.5002C90.0979 15.8364 90.5305 16.0629 91.0002 16.1502C92.7968 16.372 94.607 16.4639 96.4169 16.4252C99.3335 16.4669 101.892 16.4252 104.917 16.1919C105.398 16.1099 105.843 15.8832 106.192 15.5419C106.425 15.3085 106.599 15.0228 106.7 14.7086C106.998 13.7941 107.145 12.837 107.134 11.8752C107.167 11.4086 107.167 8.5919 107.167 8.0919ZM96.1169 12.3752V7.2169L101.05 9.80856C99.6669 10.5752 97.8419 11.4419 96.1169 12.3752Z" fill="white"/>
<path d="M142.856 1.66699C143.794 1.66949 144.27 1.67449 144.681 1.68616L144.842 1.69199C145.029 1.69866 145.213 1.70699 145.436 1.71699C146.322 1.75866 146.927 1.89866 147.458 2.10449C148.008 2.31616 148.471 2.60283 148.935 3.06533C149.359 3.48177 149.687 3.98572 149.896 4.54199C150.101 5.07283 150.241 5.67782 150.283 6.56533C150.293 6.78699 150.301 6.97116 150.308 7.15866L150.313 7.32033C150.326 7.73033 150.331 8.20616 150.332 9.14366L150.333 9.76533V10.857C150.335 11.4648 150.329 12.0727 150.314 12.6803L150.309 12.842C150.302 13.0295 150.294 13.2137 150.284 13.4353C150.242 14.3228 150.101 14.927 149.896 15.4587C149.687 16.0149 149.359 16.5189 148.935 16.9353C148.518 17.3592 148.014 17.6871 147.458 17.8962C146.927 18.102 146.322 18.242 145.436 18.2837L144.842 18.3087L144.681 18.3137C144.27 18.3253 143.794 18.3312 142.856 18.3328L142.235 18.3337H141.144C140.536 18.3358 139.928 18.3294 139.32 18.3145L139.158 18.3095C138.96 18.302 138.763 18.2934 138.565 18.2837C137.678 18.242 137.073 18.102 136.541 17.8962C135.986 17.687 135.482 17.3591 135.066 16.9353C134.641 16.519 134.313 16.015 134.104 15.4587C133.898 14.9278 133.758 14.3228 133.716 13.4353L133.691 12.842L133.687 12.6803C133.672 12.0727 133.665 11.4648 133.666 10.857V9.14366C133.664 8.53583 133.67 7.92799 133.685 7.32033L133.691 7.15866C133.697 6.97116 133.706 6.78699 133.716 6.56533C133.757 5.67782 133.897 5.07366 134.103 4.54199C134.313 3.98549 134.642 3.48152 135.066 3.06533C135.482 2.64162 135.986 2.31372 136.541 2.10449C137.073 1.89866 137.677 1.75866 138.565 1.71699C138.786 1.70699 138.971 1.69866 139.158 1.69199L139.32 1.68699C139.927 1.67219 140.535 1.6658 141.143 1.66783L142.856 1.66699ZM142 5.83366C140.895 5.83366 139.835 6.27265 139.054 7.05405C138.272 7.83545 137.833 8.89526 137.833 10.0003C137.833 11.1054 138.272 12.1652 139.054 12.9466C139.835 13.728 140.895 14.167 142 14.167C143.105 14.167 144.165 13.728 144.946 12.9466C145.728 12.1652 146.166 11.1054 146.166 10.0003C146.166 8.89526 145.728 7.83545 144.946 7.05405C144.165 6.27265 143.105 5.83366 142 5.83366ZM142 7.50033C142.328 7.50027 142.653 7.56488 142.957 7.69047C143.26 7.81605 143.536 8.00016 143.768 8.23226C144 8.46437 144.184 8.73994 144.31 9.04323C144.435 9.34653 144.5 9.6716 144.5 9.99991C144.5 10.3282 144.436 10.6533 144.31 10.9566C144.185 11.26 144 11.5356 143.768 11.7678C143.536 12 143.261 12.1842 142.957 12.3099C142.654 12.4356 142.329 12.5003 142.001 12.5003C141.338 12.5003 140.702 12.2369 140.233 11.7681C139.764 11.2993 139.501 10.6634 139.501 10.0003C139.501 9.33728 139.764 8.7014 140.233 8.23256C140.702 7.76372 141.338 7.50033 142.001 7.50033M146.376 4.58366C146.099 4.58366 145.834 4.69341 145.639 4.88876C145.444 5.08411 145.334 5.34906 145.334 5.62533C145.334 5.90159 145.444 6.16654 145.639 6.3619C145.834 6.55725 146.099 6.66699 146.376 6.66699C146.652 6.66699 146.917 6.55725 147.112 6.3619C147.308 6.16654 147.417 5.90159 147.417 5.62533C147.417 5.34906 147.308 5.08411 147.112 4.88876C146.917 4.69341 146.652 4.58366 146.376 4.58366Z" fill="white"/>
</svg>
