<svg width="143" height="50" viewBox="0 0 143 50" fill="none" xmlns="http://www.w3.org/2000/svg">
<rect x="0.5" y="0.5" width="142" height="49" rx="7.5" stroke="#1C1B1F"/>
<path d="M25.922 26.5H37.0783C38.0814 26.5 38.583 27.7141 37.8751 28.4219L32.297 34C31.8564 34.4406 31.1439 34.4406 30.708 34L25.1251 28.4219C24.4173 27.7141 24.9189 26.5 25.922 26.5ZM37.8751 21.5781L32.297 16C31.8564 15.5594 31.1439 15.5594 30.708 16L25.1251 21.5781C24.4173 22.2859 24.9189 23.5 25.922 23.5H37.0783C38.0814 23.5 38.583 22.2859 37.8751 21.5781Z" fill="#141311"/>
<path d="M53.22 32.28C52.1667 32.28 51.2333 32.0933 50.42 31.72C49.6067 31.3467 48.9667 30.8 48.5 30.08C48.0467 29.3467 47.82 28.46 47.82 27.42V26.92H49.96V27.42C49.96 28.4067 50.2533 29.1467 50.84 29.64C51.44 30.1333 52.2333 30.38 53.22 30.38C54.22 30.38 54.9733 30.1733 55.48 29.76C55.9867 29.3333 56.24 28.7867 56.24 28.12C56.24 27.68 56.12 27.32 55.88 27.04C55.64 26.76 55.3 26.54 54.86 26.38C54.42 26.2067 53.8933 26.0467 53.28 25.9L52.54 25.72C51.6467 25.5067 50.8667 25.2467 50.2 24.94C49.5467 24.62 49.04 24.2 48.68 23.68C48.32 23.16 48.14 22.4933 48.14 21.68C48.14 20.8533 48.34 20.1467 48.74 19.56C49.1533 18.9733 49.72 18.52 50.44 18.2C51.16 17.88 52.0067 17.72 52.98 17.72C53.9533 17.72 54.82 17.8867 55.58 18.22C56.3533 18.5533 56.96 19.0467 57.4 19.7C57.84 20.3533 58.06 21.1733 58.06 22.16V22.88H55.92V22.16C55.92 21.56 55.7933 21.0733 55.54 20.7C55.3 20.3267 54.96 20.0533 54.52 19.88C54.08 19.7067 53.5667 19.62 52.98 19.62C52.1267 19.62 51.46 19.8 50.98 20.16C50.5133 20.5067 50.28 20.9933 50.28 21.62C50.28 22.0467 50.38 22.4 50.58 22.68C50.7933 22.9467 51.1 23.1667 51.5 23.34C51.9 23.5133 52.4 23.6667 53 23.8L53.74 23.98C54.6467 24.18 55.4467 24.44 56.14 24.76C56.8333 25.0667 57.38 25.4867 57.78 26.02C58.18 26.5533 58.38 27.24 58.38 28.08C58.38 28.92 58.1667 29.6533 57.74 30.28C57.3267 30.9067 56.7333 31.4 55.96 31.76C55.1867 32.1067 54.2733 32.28 53.22 32.28ZM65.3275 32.28C64.3408 32.28 63.4608 32.08 62.6875 31.68C61.9275 31.2667 61.3275 30.68 60.8875 29.92C60.4475 29.16 60.2275 28.26 60.2275 27.22V26.92C60.2275 25.88 60.4475 24.9867 60.8875 24.24C61.3275 23.48 61.9275 22.8933 62.6875 22.48C63.4608 22.0667 64.3408 21.86 65.3275 21.86C66.3142 21.86 67.1942 22.0667 67.9675 22.48C68.7408 22.8933 69.3475 23.48 69.7875 24.24C70.2275 24.9867 70.4475 25.88 70.4475 26.92V27.22C70.4475 28.26 70.2275 29.16 69.7875 29.92C69.3475 30.68 68.7408 31.2667 67.9675 31.68C67.1942 32.08 66.3142 32.28 65.3275 32.28ZM65.3275 30.44C66.2342 30.44 66.9675 30.1533 67.5275 29.58C68.1008 28.9933 68.3875 28.1867 68.3875 27.16V26.98C68.3875 25.9533 68.1075 25.1533 67.5475 24.58C66.9875 23.9933 66.2475 23.7 65.3275 23.7C64.4342 23.7 63.7008 23.9933 63.1275 24.58C62.5675 25.1533 62.2875 25.9533 62.2875 26.98V27.16C62.2875 28.1867 62.5675 28.9933 63.1275 29.58C63.7008 30.1533 64.4342 30.44 65.3275 30.44ZM73.0122 32V22.14H75.0322V23.3H75.3522C75.5122 22.8867 75.7655 22.5867 76.1122 22.4C76.4722 22.2 76.9122 22.1 77.4322 22.1H78.6122V23.96H77.3522C76.6855 23.96 76.1389 24.1467 75.7122 24.52C75.2855 24.88 75.0722 25.44 75.0722 26.2V32H73.0122ZM84.4466 32C83.8466 32 83.3666 31.82 83.0066 31.46C82.6599 31.1 82.4866 30.62 82.4866 30.02V23.88H79.7666V22.14H82.4866V18.88H84.5466V22.14H87.4866V23.88H84.5466V29.66C84.5466 30.06 84.7332 30.26 85.1066 30.26H87.1666V32H84.4466ZM100.704 32.28C99.7444 32.28 99.0044 32.1067 98.4844 31.76C97.9777 31.4133 97.5977 31.0267 97.3444 30.6H97.0244V32H95.0044V18H97.0644V23.48H97.3844C97.5444 23.2133 97.7577 22.96 98.0244 22.72C98.291 22.4667 98.6444 22.26 99.0844 22.1C99.5244 21.94 100.064 21.86 100.704 21.86C101.531 21.86 102.291 22.06 102.984 22.46C103.678 22.86 104.231 23.44 104.644 24.2C105.058 24.96 105.264 25.8667 105.264 26.92V27.22C105.264 28.2867 105.051 29.2 104.624 29.96C104.211 30.7067 103.658 31.28 102.964 31.68C102.284 32.08 101.531 32.28 100.704 32.28ZM100.104 30.48C100.998 30.48 101.731 30.1933 102.304 29.62C102.891 29.0467 103.184 28.2267 103.184 27.16V26.98C103.184 25.9267 102.898 25.1133 102.324 24.54C101.751 23.9667 101.011 23.68 100.104 23.68C99.2244 23.68 98.491 23.9667 97.9044 24.54C97.331 25.1133 97.0444 25.9267 97.0444 26.98V27.16C97.0444 28.2267 97.331 29.0467 97.9044 29.62C98.491 30.1933 99.2244 30.48 100.104 30.48ZM108.957 36V34.2H114.457C114.83 34.2 115.017 34 115.017 33.6V30.56H114.697C114.577 30.8267 114.39 31.0867 114.137 31.34C113.897 31.58 113.57 31.78 113.157 31.94C112.744 32.1 112.224 32.18 111.597 32.18C110.85 32.18 110.184 32.0133 109.597 31.68C109.01 31.3467 108.55 30.8733 108.217 30.26C107.884 29.6467 107.717 28.92 107.717 28.08V22.14H109.777V27.92C109.777 28.7733 109.99 29.4067 110.417 29.82C110.844 30.22 111.437 30.42 112.197 30.42C113.037 30.42 113.71 30.14 114.217 29.58C114.737 29.02 114.997 28.2067 114.997 27.14V22.14H117.057V34.02C117.057 34.62 116.877 35.1 116.517 35.46C116.17 35.82 115.69 36 115.077 36H108.957Z" fill="#141311"/>
</svg>
