<svg width="80" height="16" viewBox="0 0 80 16" fill="none" xmlns="http://www.w3.org/2000/svg">
<path d="M8.00005 11.5133L10.7667 13.1866C11.2734 13.4933 11.8934 13.0399 11.76 12.4666L11.0267 9.31992L13.4734 7.19992C13.92 6.81326 13.68 6.07993 13.0934 6.03326L9.87338 5.75993L8.61338 2.78659C8.38672 2.24659 7.61338 2.24659 7.38671 2.78659L6.12671 5.75326L2.90672 6.02659C2.32005 6.07326 2.08005 6.80659 2.52672 7.19326L4.97338 9.31326L4.24005 12.4599C4.10672 13.0333 4.72672 13.4866 5.23338 13.1799L8.00005 11.5133Z" fill="#BA9B88"/>
<path d="M24 11.5133L26.7667 13.1866C27.2734 13.4933 27.8934 13.0399 27.76 12.4666L27.0267 9.31992L29.4734 7.19992C29.92 6.81326 29.68 6.07993 29.0934 6.03326L25.8734 5.75993L24.6134 2.78659C24.3867 2.24659 23.6134 2.24659 23.3867 2.78659L22.1267 5.75326L18.9067 6.02659C18.32 6.07326 18.08 6.80659 18.5267 7.19326L20.9734 9.31326L20.24 12.4599C20.1067 13.0333 20.7267 13.4866 21.2334 13.1799L24 11.5133Z" fill="#BA9B88"/>
<path d="M40 11.5133L42.7667 13.1866C43.2734 13.4933 43.8934 13.0399 43.76 12.4666L43.0267 9.31992L45.4734 7.19992C45.92 6.81326 45.68 6.07993 45.0934 6.03326L41.8734 5.75993L40.6134 2.78659C40.3867 2.24659 39.6134 2.24659 39.3867 2.78659L38.1267 5.75326L34.9067 6.02659C34.32 6.07326 34.08 6.80659 34.5267 7.19326L36.9734 9.31326L36.24 12.4599C36.1067 13.0333 36.7267 13.4866 37.2334 13.1799L40 11.5133Z" fill="#BA9B88"/>
<path d="M55.7046 12.1317L58.4713 13.805C58.978 14.1117 59.598 13.6583 59.4646 13.085L58.7313 9.93833L61.178 7.81833C61.6246 7.43167 61.3846 6.69833 60.798 6.65167L57.578 6.37833L56.318 3.405C56.0913 2.865 55.318 2.865 55.0913 3.405L53.8313 6.37167L50.6113 6.645C50.0246 6.69167 49.7846 7.425 50.2313 7.81167L52.678 9.93167L51.9446 13.0783C51.8113 13.6517 52.4313 14.105 52.938 13.7983L55.7046 12.1317Z" fill="#BA9B88"/>
<path d="M77.1 6.02667L73.8734 5.74667L72.6134 2.78C72.3867 2.24 71.6134 2.24 71.3867 2.78L70.1267 5.75333L66.9067 6.02667C66.32 6.07333 66.08 6.80667 66.5267 7.19333L68.9734 9.31333L68.24 12.46C68.1067 13.0333 68.7267 13.4867 69.2334 13.18L72 11.5133L74.7667 13.1867C75.2734 13.4933 75.8934 13.04 75.76 12.4667L75.0267 9.31333L77.4734 7.19333C77.92 6.80667 77.6867 6.07333 77.1 6.02667ZM72 10.2667V4.06667L73.14 6.76L76.06 7.01333L73.8467 8.93333L74.5134 11.7867L72 10.2667Z" fill="#BA9B88"/>
</svg>
