<svg width="64" height="64" viewBox="0 0 64 64" fill="none" xmlns="http://www.w3.org/2000/svg">
<g clip-path="url(#clip0_55_63)">
<path d="M27.2054 29.6027C27.5206 29.6027 27.8328 29.5406 28.124 29.4199C28.4153 29.2993 28.68 29.1224 28.9029 28.8995C29.1258 28.6766 29.3026 28.412 29.4233 28.1207C29.5439 27.8294 29.606 27.5173 29.606 27.202C29.606 26.8867 29.5439 26.5746 29.4233 26.2833C29.3026 25.992 29.1258 25.7274 28.9029 25.5045C28.68 25.2815 28.4153 25.1047 28.124 24.9841C27.8328 24.8634 27.5206 24.8013 27.2054 24.8013C26.5687 24.8013 25.958 25.0543 25.5078 25.5045C25.0576 25.9547 24.8047 26.5653 24.8047 27.202C24.8047 27.8387 25.0576 28.4493 25.5078 28.8995C25.958 29.3497 26.5687 29.6027 27.2054 29.6027Z" fill="#141311"/>
<path fill-rule="evenodd" clip-rule="evenodd" d="M15.2133 40.0107V56H38.0293V47.3173H43.7533C44.1107 47.3173 44.452 47.2467 44.7627 47.12L41.5893 44.6507H35.3627V53.3333H17.8787V38.936L17.132 38.1613C14.9453 35.888 10.6667 30.5747 10.6667 23.9667C10.6667 21.7933 11.4867 18.4653 13.9547 15.7133C16.132 13.2853 19.7853 11.0933 25.8707 10.7227V20.1227C24.8185 20.3221 23.824 20.7537 22.9597 21.3861C22.0954 22.0185 21.3831 22.8357 20.8746 23.7782C20.3661 24.7207 20.0743 25.7648 20.0204 26.8344C19.9665 27.904 20.1519 28.9721 20.563 29.961C20.9742 30.9498 21.6007 31.8345 22.3971 32.5506C23.1934 33.2667 24.1394 33.7961 25.1663 34.1002C26.1931 34.4044 27.2749 34.4757 28.3327 34.3089C29.3906 34.1421 30.3979 33.7414 31.2813 33.136L50.0413 47.7C49.9258 48.3666 50.0389 49.0527 50.3623 49.6469C50.6858 50.2411 51.2006 50.7085 51.8232 50.9732C52.4458 51.238 53.1396 51.2845 53.7919 51.1053C54.4443 50.9261 55.0169 50.5317 55.4169 49.986C55.8168 49.4403 56.0206 48.7755 55.9951 48.0995C55.9696 47.4234 55.7164 46.7758 55.2765 46.2618C54.8366 45.7478 54.2359 45.3976 53.5719 45.268C52.9078 45.1385 52.2195 45.2371 51.6187 45.548L33.1733 31.2267C33.8405 30.2375 34.2515 29.0981 34.3694 27.9108C34.4873 26.7234 34.3083 25.5255 33.8487 24.4244C33.3891 23.3233 32.6631 22.3537 31.736 21.6026C30.8089 20.8516 29.7098 20.3425 28.5373 20.1213V10.6747C31.928 10.7373 34.2773 11.192 36.0547 11.8587C37.9373 12.5653 39.3333 13.5653 40.74 14.868L40.9293 15.044C42.308 16.3213 42.7187 16.7027 42.952 17.324L48.596 32.3507H43.7533V36.2013L46.42 38.2747V35.0173H48.596C49.0269 35.0179 49.4516 34.914 49.8335 34.7144C50.2155 34.5148 50.5433 34.2255 50.7888 33.8714C51.0344 33.5173 51.1904 33.1089 51.2434 32.6812C51.2965 32.2535 51.245 31.8194 51.0933 31.416L45.448 16.3853C44.9827 15.1453 44.0827 14.3187 42.9493 13.2787L42.5533 12.9133C39.4 9.98933 35.812 8 27.7307 8C12.008 8 8 18.5 8 23.9667C8 31.656 12.9107 37.6213 15.2133 40.0107ZM27.204 31.7347C27.7995 31.7348 28.3892 31.6175 28.9394 31.3897C29.4896 31.1619 29.9895 30.828 30.4107 30.407C30.8318 29.9859 31.1659 29.4861 31.3939 28.936C31.6219 28.3858 31.7392 27.7962 31.7393 27.2007C31.7394 26.6052 31.6222 26.0155 31.3944 25.4653C31.1666 24.9151 30.8327 24.4151 30.4116 23.994C29.9906 23.5728 29.4908 23.2387 28.9406 23.0108C28.3905 22.7828 27.8008 22.6654 27.2053 22.6653C26.0027 22.6653 24.8493 23.1431 23.9988 23.9935C23.1484 24.8439 22.6707 25.9973 22.6707 27.2C22.6707 28.4027 23.1484 29.5561 23.9988 30.4065C24.8493 31.2569 26.0013 31.7347 27.204 31.7347Z" fill="#141311"/>
</g>
<defs>
<clipPath id="clip0_55_63">
<rect width="64" height="64" fill="white"/>
</clipPath>
</defs>
</svg>
