<svg width="24" height="24" viewBox="0 0 24 24" fill="none" xmlns="http://www.w3.org/2000/svg">
<path d="M3 10.234L3.747 10.17C3.72978 9.97791 3.63924 9.79984 3.49416 9.67277C3.34909 9.5457 3.16064 9.4794 2.96796 9.48764C2.77528 9.49587 2.59318 9.57802 2.45948 9.71701C2.32578 9.856 2.25076 10.0411 2.25 10.234H3ZM20.236 12.057L19.53 16.137L21.009 16.393L21.714 12.313L20.236 12.057ZM13.245 21.25H8.596V22.75H13.245V21.25ZM7.685 20.413L6.873 11.02L5.378 11.149L6.191 20.542L7.685 20.413ZM19.53 16.137C19.023 19.067 16.381 21.25 13.245 21.25V22.75C17.071 22.75 20.371 20.081 21.009 16.393L19.53 16.137ZM13.255 5.1L12.592 9.145L14.072 9.387L14.735 5.343L13.255 5.1ZM7.188 10.246L8.627 9.006L7.647 7.87L6.21 9.11L7.188 10.246ZM11.244 4.972L11.72 3.138L10.268 2.762L9.792 4.595L11.244 4.972ZM12.438 2.778L12.583 2.825L13.042 1.397L12.897 1.35L12.438 2.778ZM10.523 6.816C10.8354 6.23199 11.0774 5.61301 11.244 4.972L9.792 4.595C9.65528 5.12164 9.45656 5.63019 9.2 6.11L10.523 6.816ZM12.583 2.825C12.7257 2.86824 12.8551 2.94683 12.9593 3.05347C13.0635 3.16012 13.1391 3.29135 13.179 3.435L14.631 3.059C14.5277 2.67051 14.3278 2.31443 14.05 2.02386C13.7722 1.7333 13.4255 1.51766 13.042 1.397L12.583 2.825ZM11.72 3.138C11.7399 3.06597 11.7753 2.99915 11.8237 2.94216C11.872 2.88518 11.9322 2.8394 12 2.808L11.349 1.457C10.817 1.713 10.417 2.187 10.268 2.762L11.72 3.138ZM12 2.808C12.1369 2.74263 12.2935 2.7319 12.438 2.778L12.897 1.35C12.3863 1.18632 11.8323 1.22461 11.349 1.457L12 2.808ZM14.154 10.984H19.334V9.484H14.154V10.984ZM4.719 21.406L3.747 10.17L2.253 10.299L3.223 21.535L4.719 21.406ZM3.75 21.513V10.234H2.25V21.513H3.75ZM3.223 21.535C3.21995 21.4987 3.22549 21.4621 3.23733 21.4276C3.24918 21.3931 3.26807 21.3614 3.2928 21.3346C3.31753 21.3078 3.34757 21.2865 3.381 21.2719C3.41443 21.2573 3.45053 21.2499 3.487 21.25V22.75C4.213 22.75 4.781 22.128 4.719 21.406L3.223 21.535ZM14.735 5.343C14.8597 4.58273 14.8243 3.80479 14.631 3.059L13.179 3.436C13.3199 3.97932 13.3458 4.54609 13.255 5.1L14.735 5.343ZM8.596 21.25C8.36701 21.2496 8.14648 21.1635 7.97785 21.0085C7.80923 20.8536 7.70475 20.6411 7.685 20.413L6.191 20.542C6.24303 21.1442 6.51888 21.7049 6.96411 22.1137C7.40933 22.5225 7.99159 22.7495 8.596 22.75V21.25ZM8.627 9.006C9.307 8.42 10.039 7.723 10.524 6.816L9.2 6.11C8.854 6.759 8.303 7.306 7.647 7.87L8.627 9.006ZM21.714 12.313C21.7742 11.966 21.7578 11.61 21.666 11.27C21.5741 10.93 21.4091 10.6142 21.1823 10.3447C20.9556 10.0751 20.6727 9.85847 20.3534 9.7098C20.0341 9.56113 19.6862 9.48407 19.334 9.484V10.984C19.901 10.984 20.334 11.496 20.236 12.057L21.714 12.313ZM3.487 21.25C3.633 21.25 3.75 21.368 3.75 21.513H2.25C2.25 22.195 2.803 22.75 3.487 22.75V21.25ZM12.592 9.145C12.5547 9.37158 12.5672 9.60356 12.6285 9.82484C12.6899 10.0461 12.7986 10.2514 12.9472 10.4265C13.0958 10.6015 13.2807 10.7422 13.4891 10.8386C13.6975 10.935 13.9244 10.984 14.154 10.984V9.484C14.1418 9.48406 14.1297 9.48242 14.1187 9.47728C14.1076 9.47214 14.0978 9.46462 14.09 9.45527C14.0821 9.44591 14.0765 9.43494 14.0734 9.42314C14.0703 9.41134 14.0698 9.399 14.072 9.387L12.592 9.145ZM6.873 11.02C6.86064 10.8752 6.88184 10.7295 6.93678 10.5949C6.99171 10.4604 7.07782 10.3408 7.188 10.246L6.208 9.109C5.91802 9.35903 5.69156 9.67436 5.54726 10.029C5.40296 10.3837 5.34495 10.7675 5.378 11.149L6.873 11.02Z" fill="#141311"/>
</svg>
