<svg width="24" height="24" viewBox="0 0 24 24" fill="none" xmlns="http://www.w3.org/2000/svg">
<path d="M21.4701 11.185L20.4401 9.755C20.2095 9.43121 19.9051 9.16706 19.5521 8.98445C19.199 8.80184 18.8075 8.70604 18.4101 8.705H14.0301V6.565C14.0301 5.90196 13.7667 5.26608 13.2978 4.79724C12.829 4.32839 12.1931 4.065 11.5301 4.065H4.56006C3.89759 4.06685 3.26277 4.33083 2.79433 4.79928C2.32589 5.26772 2.06191 5.90253 2.06006 6.565V16.505C2.06006 16.9028 2.21809 17.2844 2.4994 17.5657C2.7807 17.847 3.16223 18.005 3.56006 18.005H4.78006C4.85557 18.54 5.12176 19.0298 5.52966 19.3842C5.93756 19.7385 6.45972 19.9337 7.00006 19.9337C7.54039 19.9337 8.06255 19.7385 8.47045 19.3842C8.87835 19.0298 9.14455 18.54 9.22006 18.005H14.7801C14.8556 18.54 15.1218 19.0298 15.5297 19.3842C15.9376 19.7385 16.4597 19.9337 17.0001 19.9337C17.5404 19.9337 18.0626 19.7385 18.4705 19.3842C18.8784 19.0298 19.1445 18.54 19.2201 18.005H20.4401C20.8379 18.005 21.2194 17.847 21.5007 17.5657C21.782 17.2844 21.9401 16.9028 21.9401 16.505V12.635C21.9382 12.1145 21.7738 11.6076 21.4701 11.185ZM7.00006 18.935C6.75283 18.935 6.51116 18.8617 6.3056 18.7243C6.10003 18.587 5.93982 18.3918 5.84521 18.1634C5.7506 17.9349 5.72585 17.6836 5.77408 17.4411C5.82231 17.1987 5.94136 16.9759 6.11618 16.8011C6.29099 16.6263 6.51372 16.5073 6.7562 16.459C6.99867 16.4108 7.25001 16.4355 7.47841 16.5302C7.70682 16.6248 7.90204 16.785 8.0394 16.9905C8.17675 17.1961 8.25006 17.4378 8.25006 17.685C8.25006 18.0165 8.11836 18.3345 7.88394 18.5689C7.64952 18.8033 7.33158 18.935 7.00006 18.935ZM13.0301 17.005H9.15006C9.00446 16.5491 8.71772 16.1513 8.33126 15.8691C7.9448 15.5868 7.47862 15.4347 7.00006 15.4347C6.5215 15.4347 6.05532 15.5868 5.66886 15.8691C5.2824 16.1513 4.99566 16.5491 4.85006 17.005H3.56006C3.42745 17.005 3.30027 16.9523 3.20651 16.8586C3.11274 16.7648 3.06006 16.6376 3.06006 16.505V6.565C3.06006 6.16718 3.21809 5.78565 3.4994 5.50434C3.7807 5.22304 4.16223 5.065 4.56006 5.065H11.5301C11.9279 5.065 12.3094 5.22304 12.5907 5.50434C12.872 5.78565 13.0301 6.16718 13.0301 6.565V17.005ZM17.0001 18.935C16.7528 18.935 16.5112 18.8617 16.3056 18.7243C16.1 18.587 15.9398 18.3918 15.8452 18.1634C15.7506 17.9349 15.7258 17.6836 15.7741 17.4411C15.8223 17.1987 15.9414 16.9759 16.1162 16.8011C16.291 16.6263 16.5137 16.5073 16.7562 16.459C16.9987 16.4108 17.25 16.4355 17.4784 16.5302C17.7068 16.6248 17.902 16.785 18.0394 16.9905C18.1767 17.1961 18.2501 17.4378 18.2501 17.685C18.2501 18.0165 18.1184 18.3345 17.8839 18.5689C17.6495 18.8033 17.3316 18.935 17.0001 18.935ZM20.9401 16.505C20.9401 16.6376 20.8874 16.7648 20.7936 16.8586C20.6998 16.9523 20.5727 17.005 20.4401 17.005H19.1501C19.0045 16.5491 18.7177 16.1513 18.3313 15.8691C17.9448 15.5868 17.4786 15.4347 17.0001 15.4347C16.5215 15.4347 16.0553 15.5868 15.6689 15.8691C15.2824 16.1513 14.9957 16.5491 14.8501 17.005H14.0301V9.705H18.4101C18.6486 9.70692 18.8833 9.76495 19.0952 9.87439C19.3072 9.98384 19.4904 10.1416 19.6301 10.335L20.6601 11.765C20.8399 12.0197 20.9375 12.3232 20.9401 12.635V16.505Z" fill="#141311"/>
<path d="M18.0288 12.205H16.0288C15.8962 12.205 15.769 12.1523 15.6753 12.0586C15.5815 11.9648 15.5288 11.8376 15.5288 11.705C15.5288 11.5724 15.5815 11.4452 15.6753 11.3514C15.769 11.2577 15.8962 11.205 16.0288 11.205H18.0288C18.1614 11.205 18.2886 11.2577 18.3824 11.3514C18.4761 11.4452 18.5288 11.5724 18.5288 11.705C18.5288 11.8376 18.4761 11.9648 18.3824 12.0586C18.2886 12.1523 18.1614 12.205 18.0288 12.205Z" fill="#141311"/>
</svg>
