<svg width="20" height="20" viewBox="0 0 20 20" fill="none" xmlns="http://www.w3.org/2000/svg">
<mask id="mask0_55_37" style="mask-type:alpha" maskUnits="userSpaceOnUse" x="0" y="0" width="20" height="20">
<rect width="20" height="20" fill="#D9D9D9"/>
</mask>
<g mask="url(#mask0_55_37)">
<path d="M10 9.74355C9.19792 9.74355 8.51132 9.45799 7.94021 8.88688C7.36896 8.31563 7.08333 7.62897 7.08333 6.82688C7.08333 6.0248 7.36896 5.3382 7.94021 4.76709C8.51132 4.19584 9.19792 3.91022 10 3.91022C10.8021 3.91022 11.4887 4.19584 12.0598 4.76709C12.631 5.3382 12.9167 6.0248 12.9167 6.82688C12.9167 7.62897 12.631 8.31563 12.0598 8.88688C11.4887 9.45799 10.8021 9.74355 10 9.74355ZM3.75 16.0898V14.2371C3.75 13.829 3.86083 13.4511 4.0825 13.1033C4.30417 12.7556 4.60042 12.4882 4.97125 12.3013C5.79486 11.8975 6.62576 11.5947 7.46396 11.3927C8.30215 11.1908 9.1475 11.0898 10 11.0898C10.8525 11.0898 11.6978 11.1908 12.536 11.3927C13.3742 11.5947 14.2051 11.8975 15.0287 12.3013C15.3996 12.4882 15.6958 12.7556 15.9175 13.1033C16.1392 13.4511 16.25 13.829 16.25 14.2371V16.0898H3.75ZM5 14.8398H15V14.2371C15 14.0683 14.9511 13.9121 14.8533 13.7683C14.7556 13.6247 14.6228 13.5075 14.4552 13.4167C13.7372 13.0631 13.0051 12.7951 12.259 12.6129C11.5127 12.4308 10.7597 12.3398 10 12.3398C9.24028 12.3398 8.48729 12.4308 7.74104 12.6129C6.99493 12.7951 6.26285 13.0631 5.54479 13.4167C5.37715 13.5075 5.24444 13.6247 5.14667 13.7683C5.04889 13.9121 5 14.0683 5 14.2371V14.8398ZM10 8.49355C10.4583 8.49355 10.8507 8.33036 11.1771 8.00397C11.5035 7.67758 11.6667 7.28522 11.6667 6.82688C11.6667 6.36855 11.5035 5.97619 11.1771 5.6498C10.8507 5.32341 10.4583 5.16022 10 5.16022C9.54167 5.16022 9.14931 5.32341 8.82292 5.6498C8.49653 5.97619 8.33333 6.36855 8.33333 6.82688C8.33333 7.28522 8.49653 7.67758 8.82292 8.00397C9.14931 8.33036 9.54167 8.49355 10 8.49355Z" fill="#141311"/>
</g>
</svg>
